<svg id="Layer_1" xmlns="http://www.w3.org/2000/svg" viewBox="0 0 100 100"><style>.st0{fill:none;stroke:#000000;stroke-width:2;stroke-miterlimit:10;} .st1{fill:none;stroke:#000000;stroke-width:4;stroke-miterlimit:10;}</style><circle class="st0" cx="-61.9" cy="35" r="42.2"/><path class="st1" d="M-96.7-16.7H-22V58h-74.7z"/><path class="st1" d="M-61.9-35.2l18.8 32.6 18.8 32.5h-75.2l18.8-32.5z"/><path class="st1" d="M-82.9-64.7c6 5-6.8 20.4-.8 25.4s18.8-10.4 24.8-5.4-6.8 20.4-.8 25.4 18.8-10.4 24.8-5.4-6.8 20.4-.8 25.4m-18.5 67L-42.5 88l11.7 20.3h-46.8L-65.9 88zm0 84.9l-11.7-20.3-11.7-20.3h46.8l-11.7 20.3zM17.8 50l29-45.8L77.2 50 49 94.5z"/></svg>